<svg version="1.2" xmlns="http://www.w3.org/2000/svg" viewBox="0 0 497 360" width="1920" height="1080">
	<title>Path 454</title>
	<style>
		.s0 { fill: #25275a } 
	</style>
	<path id="Path 454" fill-rule="evenodd" class="s0" d="m494.6 0.5l-18.4 25h-0.1l-62.9 21.3-31.4 42.6h-0.1l-62.8 21.3-31.5 42.6-0.1 0.1-62.8 21.2-31.5 42.7h-0.1l-62.8 21.3-31.4 42.6h-0.1l-62.9 21.3-31.4 42.6h-0.1l-3.2 1.1v-0.4l2.9-1 31.4-42.6h0.1l62.8-21.3 31.5-42.6h0.1l62.8-21.3 31.5-42.6 0.1-0.1 62.8-21.3 31.4-42.6h0.1l62.9-21.3 31.4-42.6h0.1l62.8-21.3 18.2-24.7zm-11.8 0l-14.4 19.6-0.1 0.1-62.9 21.3-31.4 42.6h-0.1l-62.8 21.3-31.5 42.6h-0.1l-62.8 21.3-31.5 42.6-0.1 0.1-62.8 21.2-31.4 42.7h-0.1l-62.9 21.3-26.8 36.4v-0.9l26.4-35.8h0.1l62.8-21.3 31.5-42.6 0.1-0.1 62.8-21.2 31.5-42.7h0.1l62.8-21.3 31.4-42.6h0.1l62.9-21.3 31.4-42.6 0.1-0.1 62.8-21.2 14.3-19.4zm-11.8 0l-10.5 14.3h-0.1l-62.9 21.3-31.4 42.6-0.1 0.1-62.8 21.3-31.5 42.6h-0.1l-62.8 21.3-31.5 42.6h-0.1l-62.8 21.3-31.4 42.6-0.1 0.1-62.9 21.2-19 25.8v-0.9l18.6-25.1 0.1-0.1 62.8-21.2 31.5-42.7h0.1l62.8-21.3 31.5-42.6h0.1l62.8-21.3 31.4-42.6 0.1-0.1 62.9-21.2 31.4-42.7h0.1l62.8-21.3 10.4-14zm-11.8 0l-6.6 9h-0.1l-62.9 21.3-31.4 42.6-0.1 0.1-62.8 21.2-31.5 42.7h-0.1l-62.8 21.3-31.5 42.6-62.9 21.3-31.4 42.6h-0.1l-62.9 21.3-11.1 15.1v-0.8l10.7-14.6h0.1l62.8-21.3 31.5-42.6h0.1l62.8-21.3 31.5-42.6 0.1-0.1 62.8-21.2 31.4-42.7h0.1l62.9-21.3 31.4-42.6h0.1l62.8-21.3 6.5-8.7zm-11.8 0l-2.7 3.7h-0.1l-62.9 21.3-31.4 42.6h-0.1l-62.8 21.3-31.5 42.6-0.1 0.1-62.8 21.2-31.5 42.7-62.9 21.3-31.4 42.6h-0.1l-62.9 21.3-3.2 4.4v-0.8l2.8-3.9h0.1l62.8-21.3 31.5-42.6 0.1-0.1 62.8-21.2 31.5-42.7h0.1l62.8-21.3 31.4-42.6h0.1l62.9-21.3 31.4-42.6h0.1l62.8-21.3 2.5-3.4zm-15.5 0l-58 19.6-31.4 42.7h-0.1l-62.8 21.3-31.5 42.6h-0.1l-62.8 21.3-31.5 42.6v0.1l-62.9 21.2-31.4 42.7h-0.1l-58.3 19.7v-0.4l57.9-19.6 31.5-42.6 0.1-0.1 62.8-21.3 31.5-42.6h0.1l62.8-21.3 31.5-42.6 62.9-21.3 31.4-42.6 0.1-0.1 57.1-19.3zm-23.6 0l-42.3 14.3-31.4 42.6-0.1 0.1-62.9 21.2-31.4 42.7h-0.1l-62.8 21.3-31.5 42.6h-0.1l-62.8 21.3-31.5 42.6v0.1l-50.4 17v-0.4l50-17 31.5-42.6h0.1l62.8-21.3 31.4-42.6h0.1l62.9-21.3 31.4-42.6 0.1-0.1 62.8-21.2 31.5-42.7h0.1l41.3-14zm-23.6 0l-26.5 9-31.5 42.6h-0.1l-62.8 21.3-31.4 42.6-0.1 0.1-62.9 21.3-31.4 42.6h-0.1l-62.8 21.3-31.5 42.6h-0.1l-42.5 14.4v-0.4l42.2-14.3 31.4-42.6h0.1l62.9-21.3 31.4-42.6 0.1-0.1 62.8-21.2 31.5-42.7h0.1l62.8-21.3 31.5-42.6 25.6-8.7zm-23.6 0l-10.7 3.7-31.5 42.6h-0.1l-62.8 21.3-31.5 42.6h-0.1l-62.8 21.3-31.5 42.6v0.1l-62.9 21.3-31.4 42.6h-0.1l-34.7 11.7v-0.4l34.3-11.6 31.5-42.6 0.1-0.1 62.8-21.2 31.5-42.7h0.1l62.8-21.3 31.5-42.6 62.9-21.3 31.4-42.6h0.1l9.9-3.4zm-19.9 0l-30.2 41h-0.1l-62.9 21.3-31.4 42.6h-0.1l-62.8 21.3-31.5 42.6h-0.1l-62.8 21.3-31.5 42.6v0.1l-26.8 9v-0.4l26.4-8.9 31.5-42.7h0.1l62.8-21.3 31.4-42.6h0.1l62.9-21.3 31.4-42.6h0.1l62.8-21.3 30.1-40.7zm-11.8 0l-26.3 35.6-0.1 0.1-62.9 21.2-31.4 42.7h-0.1l-62.8 21.3-31.5 42.6h-0.1l-62.8 21.3-31.5 42.6-19 6.5v-0.5l18.6-6.3 31.5-42.6h0.1l62.8-21.3 31.5-42.6 62.9-21.3 31.4-42.6 0.1-0.1 62.8-21.3 26.1-35.3zm-11.8 0l-22.3 30.3h-0.1l-62.8 21.3-31.5 42.6-0.1 0.1-62.8 21.2-31.5 42.7h-0.1l-62.8 21.3-31.5 42.6-11.1 3.8v-0.5l10.7-3.6 31.5-42.6h0.1l62.8-21.3 31.5-42.6v-0.1l62.9-21.3 31.4-42.6h0.1l62.8-21.3 22.2-30zm-11.8 0l-18.4 25h-0.1l-62.8 21.3-31.5 42.6h-0.1l-62.8 21.3-31.5 42.6-0.1 0.1-62.8 21.2-31.5 42.7-3.2 1.1v-0.5l2.8-0.9 31.5-42.6 0.1-0.1 62.8-21.3 31.5-42.6 62.9-21.3 31.4-42.6h0.1l62.8-21.3 18.3-24.7zm-11.8 0l-14.5 19.6-0.1 0.1-62.8 21.3-31.5 42.6h-0.1l-62.8 21.3-31.5 42.6h-0.1l-62.8 21.3-26.9 36.4v-0.8l26.5-35.9h0.1l62.8-21.3 31.5-42.6 62.9-21.3 31.4-42.6 0.1-0.1 62.9-21.2 14.2-19.4zm-11.8 0l-10.5 14.3h-0.1l-62.8 21.3-31.5 42.6-0.1 0.1-62.8 21.3-31.5 42.6h-0.1l-62.8 21.3-19 25.7v-0.8l18.6-25.2h0.1l62.8-21.3 31.5-42.6v-0.1l62.9-21.2 31.4-42.7h0.1l62.9-21.3 10.3-14zm-11.8 0l-6.6 9h-0.1l-62.8 21.3-31.5 42.6-0.1 0.1-62.8 21.2-31.5 42.7h-0.1l-62.8 21.3-11.1 15.1v-0.9l10.7-14.5 0.1-0.1 62.8-21.2 31.5-42.7 62.9-21.3 31.4-42.6h0.1l62.9-21.3 6.4-8.7zm-11.8 0l-2.7 3.7h-0.1l-62.8 21.3-31.5 42.6h-0.1l-62.8 21.3-31.5 42.6-0.1 0.1-62.8 21.2-3.3 4.5v-0.9l2.9-3.9h0.1l62.8-21.3 31.5-42.6 62.9-21.3 31.4-42.6h0.1l62.9-21.3 2.4-3.4zm-15.5 0l-57.9 19.6-31.5 42.7h-0.1l-62.8 21.3-31.5 42.6h-0.1l-58.2 19.8v-0.5l57.9-19.6 31.5-42.6h0.1l62.8-21.3 31.4-42.6 0.1-0.1 57.1-19.3zm-23.6 0l-42.3 14.3-31.4 42.6-0.1 0.1-62.8 21.2-31.5 42.7h-0.1l-50.4 17.1v-0.5l50.1-16.9 31.4-42.6 0.1-0.1 62.9-21.2 31.4-42.7h0.1l41.3-14zm-23.6 0l-26.5 9-31.5 42.6-62.9 21.3-31.4 42.6-0.1 0.1-42.5 14.4v-0.5l42.1-14.2 31.5-42.7h0.1l62.8-21.3 31.5-42.6h0.1l25.6-8.7zm-23.6 0l-10.8 3.7-31.5 42.6h-0.1l-62.8 21.3-31.5 42.6-34.7 11.8v-0.4l34.3-11.7 31.5-42.6h0.1l62.8-21.3 31.5-42.6 9.9-3.4zm-19.9 0l-30.2 41h-0.1l-62.8 21.3-31.5 42.6h-0.1l-26.8 9.1v-0.4l26.5-9 31.4-42.6h0.1l62.9-21.3 30-40.7zm-11.8 0l-26.3 35.6-0.1 0.1-62.8 21.2-31.5 42.7h-0.1l-18.9 6.4v-0.4l18.6-6.3 31.4-42.6 0.1-0.1 62.9-21.3 26-35.3zm-11.8 0l-22.3 30.3h-0.1l-62.8 21.3-31.5 42.6-0.1 0.1-11 3.7v-0.4l10.7-3.7 31.4-42.6h0.1l62.9-21.3 22.1-30zm-11.8 0l-18.4 25h-0.1l-62.8 21.3-31.5 42.6h-0.1l-3.2 1.1v-0.4l2.9-1 31.4-42.6h0.1l62.9-21.3 18.2-24.7zm-11.8 0l-14.5 19.6-0.1 0.1-62.8 21.3-26.9 36.4v-0.9l26.4-35.8 0.1-0.1 62.9-21.2 14.2-19.4zm-11.7 0l-10.6 14.3h-0.1l-62.8 21.3-19 25.8v-0.9l18.6-25.2 62.9-21.3 10.3-14zm-11.8 0l-6.6 9h-0.1l-62.8 21.3-11.2 15.1v-0.9l10.8-14.5 62.9-21.3 6.4-8.7zm-11.8 0l-2.7 3.7h-0.1l-62.8 21.3-3.3 4.4v-0.8l2.9-3.9 62.9-21.3 2.5-3.4zm-15.5 0l-53.4 18.1v-0.4l52.1-17.7zm-23.6 0l-29.8 10.1v-0.4l28.5-9.7zm-23.6 0l-6.2 2.1v-0.4l5-1.7zm489.6 12.1v0.8l-12.8 17.4h-0.1l-62.8 21.3-31.5 42.6-0.1 0.1-62.8 21.2-31.5 42.7h-0.1l-62.8 21.3-31.4 42.6h-0.1l-62.9 21.3-31.4 42.6h-0.1l-62.8 21.3-31.5 42.6-0.1 0.1-11 3.7v-0.4l10.7-3.6 31.4-42.7h0.1l62.9-21.3 31.4-42.6h0.1l62.8-21.3 31.5-42.6h0.1l62.8-21.3 31.5-42.6 0.1-0.1 62.8-21.3 31.4-42.6h0.1l62.9-21.3zm0 16v0.9l-5 6.7h-0.1l-62.8 21.3-31.5 42.6h-0.1l-62.8 21.3-31.5 42.6v0.1l-62.9 21.3-31.4 42.6h-0.1l-62.9 21.3-31.4 42.6h-0.1l-62.8 21.3-31.5 42.6-0.1 0.1-9.8 3.3h-1.3l10.8-3.7 31.5-42.6 62.9-21.3 31.4-42.6h0.1l62.8-21.3 31.5-42.6 0.1-0.1 62.8-21.2 31.5-42.7h0.1l62.8-21.3 31.4-42.6h0.1l62.9-21.3zm0 13.5v0.4l-60.1 20.3-31.4 42.7h-0.1l-62.8 21.3-31.5 42.6h-0.1l-62.8 21.3-31.5 42.6-62.9 21.3-31.4 42.6-0.1 0.1-62.9 21.2-30 40.7h-0.6l30.2-40.9 0.1-0.1 62.8-21.2 31.5-42.7h0.1l62.8-21.3 31.5-42.6h0.1l62.8-21.3 31.4-42.6 0.1-0.1 62.9-21.2 31.4-42.7h0.1zm0 8v0.4l-52.2 17.7-31.4 42.6-0.1 0.1-62.8 21.2-31.5 42.7h-0.1l-62.8 21.3-31.5 42.6-62.9 21.3-31.4 42.6h-0.1l-62.9 21.3-26 35.3h-0.7l26.3-35.6h0.1l62.8-21.3 31.5-42.6h0.1l62.8-21.3 31.5-42.6 0.1-0.1 62.8-21.2 31.5-42.7 62.9-21.3 31.4-42.6h0.1zm0 8v0.4l-44.3 15-31.4 42.6-0.1 0.1-62.9 21.2-31.4 42.7h-0.1l-62.8 21.3-31.5 42.6h-0.1l-62.8 21.3-31.5 42.6h-0.1l-62.8 21.3-22.1 30h-0.7l22.4-30.3h0.1l62.8-21.3 31.5-42.6h0.1l62.8-21.3 31.4-42.6h0.1l62.9-21.3 31.4-42.6 0.1-0.1 62.8-21.3 31.5-42.6h0.1zm0 8v0.4l-36.5 12.4-31.4 42.6h-0.1l-62.8 21.3-31.5 42.6h-0.1l-62.8 21.3-31.5 42.6v0.1l-62.9 21.2-31.4 42.7h-0.1l-62.9 21.3-18.2 24.6h-0.6l18.4-24.9h0.1l62.8-21.3 31.5-42.6 0.1-0.1 62.8-21.3 31.5-42.6h0.1l62.8-21.3 31.5-42.6 62.9-21.3 31.4-42.6 0.1-0.1zm0 8v0.5l-28.6 9.6-31.4 42.7h-0.1l-62.8 21.3-31.5 42.6h-0.1l-62.8 21.3-31.5 42.6-62.9 21.3-31.4 42.6-0.1 0.1-62.9 21.3-14.2 19.3h-0.7l14.5-19.6 0.1-0.1 62.8-21.2 31.5-42.7h0.1l62.8-21.3 31.5-42.6h0.1l62.8-21.3 31.4-42.6 0.1-0.1 62.9-21.2 31.4-42.6 0.1-0.1zm0 8v0.4l-20.7 7-31.5 42.7-62.9 21.3-31.4 42.6h-0.1l-62.8 21.3-31.5 42.6-0.1 0.1-62.8 21.2-31.5 42.7h-0.1l-62.8 21.3-10.3 14h-0.7l10.6-14.3h0.1l62.8-21.3 31.5-42.7 62.9-21.3 31.4-42.6h0.1l62.9-21.3 31.4-42.6h0.1l62.8-21.3 31.5-42.6 0.1-0.1zm0 8v0.5l-12.9 4.3-31.4 42.6h-0.1l-62.8 21.3-31.5 42.6-0.1 0.1-62.8 21.3-31.5 42.6h-0.1l-62.8 21.3-31.5 42.6-62.9 21.3-6.4 8.7h-0.6l6.6-9h0.1l62.8-21.3 31.5-42.6h0.1l62.8-21.3 31.5-42.6v-0.1l62.9-21.2 31.4-42.7h0.1l62.9-21.3 31.4-42.6h0.1zm0 8v0.4l-5 1.7-31.4 42.6h-0.1l-62.9 21.3-31.4 42.6-0.1 0.1-62.8 21.2-31.5 42.7h-0.1l-62.8 21.3-31.5 42.6-62.9 21.3-2.5 3.4h-0.6l2.7-3.7h0.1l62.8-21.3 31.5-42.6h0.1l62.8-21.3 31.4-42.6 0.1-0.1 62.9-21.2 31.4-42.7h0.1l62.8-21.3 31.5-42.6h0.1zm0 10.5v0.8l-28.6 38.7-0.1 0.1-62.8 21.2-31.5 42.7-62.9 21.3-31.4 42.6h-0.1l-62.8 21.3-31.5 42.6h-0.1l-57 19.4h-1.3l58-19.7 31.4-42.6h0.1l62.8-21.3 31.5-42.6h0.1l62.8-21.3 31.5-42.6 0.1-0.1 62.8-21.3zm0 16v0.9l-20.7 28-0.1 0.1-62.8 21.2-31.5 42.7h-0.1l-62.8 21.3-31.5 42.6-62.9 21.3-31.4 42.6h-0.1l-41.3 14h-1.3l42.2-14.3 31.5-42.6h0.1l62.8-21.3 31.5-42.6h0.1l62.8-21.3 31.5-42.6v-0.1l62.9-21.3zm0 16v0.9l-12.9 17.4h-0.1l-62.8 21.3-31.4 42.6h-0.1l-62.9 21.3-31.4 42.6-0.1 0.1-62.8 21.2-31.5 42.7h-0.1l-25.6 8.7h-1.2l26.5-9 31.4-42.6 0.1-0.1 62.9-21.2 31.4-42.7h0.1l62.8-21.3 31.5-42.6h0.1l62.8-21.3zm0 16v0.8l-5 6.8-62.9 21.3-31.4 42.6h-0.1l-62.8 21.3-31.5 42.6-0.1 0.1-62.8 21.2-31.5 42.7h-0.1l-9.8 3.3h-1.3l10.8-3.6 31.5-42.7 62.9-21.3 31.4-42.6h0.1l62.8-21.3 31.5-42.6h0.1l62.8-21.3zm0 13.5v0.4l-60 20.3-31.5 42.6v0.1l-62.9 21.2-31.4 42.7h-0.1l-62.9 21.3-30 40.6h-0.6l30.2-40.9h0.1l62.8-21.3 31.5-42.6 0.1-0.1 62.8-21.3 31.5-42.6h0.1zm0 8v0.4l-52.2 17.7-31.5 42.6-62.9 21.3-31.4 42.6-0.1 0.1-62.9 21.2-26 35.4h-0.7l26.3-35.6 0.1-0.1 62.8-21.3 31.5-42.6h0.1l62.8-21.3 31.5-42.6h0.1zm0 8v0.4l-44.3 15-31.5 42.6h-0.1l-62.8 21.3-31.5 42.6v0.1l-62.9 21.2-22.1 30.1h-0.7l22.4-30.3 0.1-0.1 62.8-21.2 31.5-42.7h0.1l62.8-21.3 31.4-42.6h0.1zm0 8v0.4l-36.4 12.3-31.5 42.7-62.9 21.3-31.4 42.6h-0.1l-62.8 21.3-18.3 24.7h-0.6l18.4-25h0.1l62.8-21.3 31.5-42.6 0.1-0.1 62.8-21.2 31.5-42.7h0.1zm0 8v0.4l-28.6 9.7-31.5 42.6v0.1l-62.9 21.2-31.4 42.7h-0.1l-62.8 21.3-14.3 19.3h-0.7l14.5-19.6h0.1l62.8-21.3 31.5-42.6 0.1-0.1 62.8-21.3 31.5-42.6h0.1zm0 8v0.4l-20.7 7-31.5 42.7h-0.1l-62.8 21.3-31.5 42.6h-0.1l-62.8 21.3-10.3 14h-0.7l10.6-14.3h0.1l62.8-21.3 31.5-42.6v-0.1l62.9-21.2 31.4-42.7h0.1zm0 8v0.4l-12.8 4.4-31.5 42.6h-0.1l-62.8 21.3-31.4 42.6-0.1 0.1-62.9 21.2-6.4 8.7h-0.6l6.6-8.9 0.1-0.1 62.8-21.3 31.5-42.6h0.1l62.8-21.3 31.5-42.6zm0 8v0.4l-4.9 1.7-31.5 42.6h-0.1l-62.8 21.3-31.5 42.6-62.9 21.3-2.5 3.4h-0.6l2.7-3.7h0.1l62.8-21.3 31.5-42.6h0.1l62.8-21.3 31.5-42.6zm0 10.5v0.8l-28.5 38.7h-0.1l-62.8 21.3-31.5 42.6-0.1 0.1-57 19.3h-1.3l58-19.6 31.4-42.7h0.1l62.8-21.3zm0 16v0.9l-20.7 28-62.9 21.3-31.4 42.6-0.1 0.1-41.3 14h-1.3l42.3-14.3 31.4-42.7h0.1l62.8-21.3zm0 16v0.9l-12.8 17.4h-0.1l-62.8 21.3-31.5 42.6h-0.1l-25.6 8.7h-1.2l26.5-9 31.5-42.6 62.9-21.3zm0 16v0.8l-5 6.8h-0.1l-62.8 21.3-31.5 42.6h-0.1l-9.8 3.3h-1.3l10.8-3.6 31.5-42.6v-0.1l62.9-21.2zm0 13.4v0.5l-60.1 20.3-30 40.7h-0.6l30.2-41h0.1zm0 8v0.4l-52.1 17.7-26.1 35.3h-0.7l26.3-35.6 0.1-0.1zm0 8v0.5l-44.3 15-22.1 30h-0.7l22.4-30.3h0.1zm0 7.9v0.5l-36.4 12.3-18.3 24.7h-0.6l18.4-25h0.1zm0 8v0.4l-28.5 9.7-14.3 19.3h-0.7l14.5-19.6h0.1zm0 8v0.4l-20.7 7-10.3 14h-0.7l10.6-14.3h0.1zm0 8v0.4l-12.9 4.4-6.4 8.7h-0.6l6.6-9h0.1zm0 7.9v0.5l-5 1.7-2.5 3.3h-0.6l2.7-3.6 0.1-0.1z"/>
</svg>